<?xml version="1.0" encoding="utf-8"?>
<!-- Generator: Adobe Illustrator 24.2.1, SVG Export Plug-In . SVG Version: 6.00 Build 0)  -->
<svg version="1.1"
	 id="svg2" inkscape:version="0.48.1 r9760" sodipodi:docname="templesillouwet.svg" xmlns:cc="http://creativecommons.org/ns#" xmlns:dc="http://purl.org/dc/elements/1.1/" xmlns:inkscape="http://www.inkscape.org/namespaces/inkscape" xmlns:rdf="http://www.w3.org/1999/02/22-rdf-syntax-ns#" xmlns:sodipodi="http://sodipodi.sourceforge.net/DTD/sodipodi-0.dtd" xmlns:svg="http://www.w3.org/2000/svg"
	 xmlns="http://www.w3.org/2000/svg" xmlns:xlink="http://www.w3.org/1999/xlink" x="0px" y="0px" viewBox="0 0 306.7 494.4"
	 style="enable-background:new 0 0 306.7 494.4;" xml:space="preserve">
<style type="text/css">
	.st0{fill:#FFFFFF;}
</style>
<sodipodi:namedview  bordercolor="#666666" borderopacity="1.0" id="base" inkscape:current-layer="layer2" inkscape:cx="413.81384" inkscape:cy="1257.9591" inkscape:document-units="px" inkscape:guide-bbox="true" inkscape:pageopacity="0.0" inkscape:pageshadow="2" inkscape:window-height="1109" inkscape:window-maximized="1" inkscape:window-width="1837" inkscape:window-x="-4" inkscape:window-y="-3" inkscape:zoom="0.21461796" pagecolor="#ffffff" showgrid="false" showguides="true">
	</sodipodi:namedview>
<g id="layer1" inkscape:groupmode="layer" inkscape:label="Layer 1">
</g>
<g id="layer2" inkscape:groupmode="layer" inkscape:label="Layer">
	<path id="path5887" class="st0" d="M145.9,8.1l-1.1,1.9l1.7,0.4l1.6,1.3l-0.4,3.3l-0.2,1.5c0,0-0.1,0.4,0,0.5
		c0.1,0.2,0.3,0.3,0.3,0.3l2.2,2.1v10.2l1,0.2l0.6,6.7h1.5v2.4c-2.1,0.5-3.7,2.3-3.7,4.6c0,1.7,0.9,3.2,2.3,4.1h-1.2l-11.4,76v5.6
		h-1.3v-5.4h-1.2l-1.8-9.1c0.3-0.1,0.6-0.5,0.6-0.8c0-0.5-0.4-0.9-1-0.9s-1,0.4-1,0.9c0,0.4,0.3,0.7,0.6,0.8l-1.8,9.1H131v6.5h0.5
		v28.4h-0.8v-3.8h-1.4l-2.1-11.8c0.5-0.2,0.8-0.6,0.8-1.2c0-0.7-0.6-1.3-1.3-1.3s-1.3,0.6-1.3,1.3c0,0.5,0.3,1,0.8,1.2l-2.1,11.8
		h-1.4v7.8h0.8v24h-1.8v-4.9h-1.6l-2.5-12.3c0.5-0.2,0.9-0.7,0.9-1.2c0-0.7-0.6-1.3-1.4-1.3s-1.4,0.6-1.4,1.3c0,0.5,0.4,1,0.9,1.2
		l-2.5,12.3h-1.6v9.2h0.9v75h-8.2v-4.5h-7.5v7.4h-5.9v-4.1h-7.4v7h-8.2v-68.7h0.7v-7.4h-1.3l-2-9.9c0.4-0.2,0.7-0.5,0.7-1
		c0-0.6-0.5-1.1-1.1-1.1s-1.1,0.5-1.1,1.1c0,0.4,0.3,0.8,0.7,1l-2,9.9h-1.3v4h-1.4v-19.4h0.6V174h-1.1l-1.7-9.6
		c0.4-0.1,0.7-0.5,0.7-0.9c0-0.6-0.5-1-1.1-1s-1.1,0.4-1.1,1c0,0.4,0.3,0.8,0.7,0.9l-1.7,9.6h-1.2v3.1h-0.6v-22.9H62v-5.3h-1
		l-1.5-7.4c0.3-0.1,0.5-0.4,0.5-0.7c0-0.4-0.4-0.8-0.8-0.8s-0.8,0.3-0.8,0.8c0,0.3,0.2,0.6,0.5,0.7l-1.5,7.4h-1v4.3h-1.1v-4.5
		l-9.2-61.5h-1c1.1-0.6,1.8-1.7,1.8-3c0-1.7-1.3-3.2-2.9-3.5v-3.3c0.8-0.3,1.3-1,1.3-1.8s-0.5-1.5-1.3-1.8v-3.2h-1.6v3.2
		c-0.8,0.3-1.3,1-1.3,1.8s0.6,1.5,1.3,1.8v3.3c-1.7,0.3-3,1.8-3,3.5c0,1.3,0.8,2.4,1.8,3h-1L31,148.7v4.5h-1.1v-4.3H29l-1.5-7.4
		c0.3-0.1,0.5-0.4,0.5-0.7c0-0.4-0.4-0.8-0.8-0.8s-0.8,0.3-0.8,0.8c0,0.3,0.2,0.6,0.5,0.7l-1.5,7.4h-0.9v5.3h0.4v22.9h-0.6V174h-1.1
		l-1.7-9.6c0.4-0.2,0.7-0.5,0.7-0.9c0-0.6-0.5-1-1.1-1s-1.1,0.4-1.1,1c0,0.4,0.3,0.8,0.7,0.9L19,174h-1.1v6.3h0.6v19.4h-1.4v-4h-1.3
		l-2-9.9c0.4-0.2,0.7-0.5,0.7-1c0-0.6-0.5-1.1-1.1-1.1s-1.1,0.5-1.1,1.1c0,0.4,0.3,0.8,0.7,1l-2,9.9h-0.9v7.4h0.7V483H297V203.1h0.7
		v-7.4h-1.3l-2-9.9c0.4-0.2,0.7-0.5,0.7-1c0-0.6-0.5-1.1-1.1-1.1s-1.1,0.5-1.1,1.1c0,0.4,0.3,0.8,0.7,1l-2,9.9h-1.3v4h-1.4v-19.4
		h0.6V174h-1.2l-1.7-9.6c0.4-0.1,0.7-0.5,0.7-0.9c0-0.6-0.5-1-1.1-1c-0.6,0-1.1,0.4-1.1,1c0,0.4,0.3,0.8,0.7,0.9l-1.7,9.6h-1.2v3.1
		h-0.6v-22.9h0.4v-5.3h-1l-1.5-7.4c0.3-0.1,0.5-0.4,0.5-0.7c0-0.4-0.4-0.8-0.8-0.8s-0.8,0.3-0.8,0.8c0,0.3,0.2,0.6,0.5,0.7l-1.5,7.4
		h-0.9v4.3h-1.1v-4.5l-9.2-61.5h-1c1.1-0.6,1.8-1.7,1.8-3c0-1.7-1.3-3.2-2.9-3.5v-3.3c0.7-0.3,1.3-1,1.3-1.8s-0.5-1.5-1.3-1.8v-3.2
		h-1.6v3.2c-0.8,0.3-1.3,1-1.3,1.8s0.6,1.5,1.3,1.8v3.3c-1.7,0.3-3,1.8-3,3.5c0,1.3,0.8,2.4,1.8,3h-1l-9.2,61.5v4.5h-0.7v-4.3h-0.9
		l-1.5-7.4c0.3-0.1,0.5-0.4,0.5-0.7c0-0.4-0.4-0.8-0.8-0.8s-0.8,0.3-0.8,0.8c0,0.3,0.2,0.6,0.5,0.7l-1.5,7.4h-0.9v5.3h0.4v22.9h-0.6
		V174h-1.1l-1.7-9.6c0.4-0.2,0.7-0.5,0.7-0.9c0-0.6-0.5-1-1.1-1s-1.1,0.4-1.1,1c0,0.4,0.3,0.8,0.7,0.9l-1.7,9.6h-1.1v6.3h0.6v19.4
		h-1.4v-4H237l-2-9.9c0.4-0.2,0.7-0.5,0.7-1c0-0.6-0.5-1.1-1.1-1.1s-1.1,0.5-1.1,1.1c0,0.4,0.3,0.8,0.7,1l-2,9.9h-1.3v7.4h0.7v68.7
		h-8.2v-7h-7.5v4.1H210v-7.4h-7.5v4.5h-8.2v-75h0.9v-9.2h-1.6l-2.4-12.3c0.5-0.2,0.8-0.6,0.8-1.2c0-0.7-0.6-1.3-1.4-1.3
		c-0.7,0-1.3,0.6-1.3,1.3c0,0.5,0.4,1,0.8,1.2l-2.5,12.3h-1.5v4.9h-1.8v-24h0.8v-7.8h-1.4l-2.1-11.8c0.5-0.2,0.8-0.6,0.8-1.2
		c0-0.7-0.6-1.3-1.3-1.3s-1.3,0.6-1.3,1.3c0,0.5,0.4,1,0.8,1.2l-2.1,11.8h-1.4v3.8h-0.8v-28.3h0.6v-6.5h-1.2l-1.8-9.1
		c0.4-0.1,0.6-0.5,0.6-0.8c0-0.5-0.4-0.9-1-0.9s-1,0.4-1,0.9c0,0.4,0.3,0.7,0.6,0.8l-1.8,9.1h-1.2v5.4h-1.3v-5.6l-11.4-76h-1.2
		c1.4-0.8,2.3-2.3,2.3-4.1c0-2.3-1.6-4.1-3.7-4.6v-2.7l1.2-0.9v-5.3l0.9-0.6l-0.1-7.3l2.7,5.6c0,0,0.3-0.5,0.4-0.7
		c0.1-0.4-0.1-1.1-0.1-1.1l-2.2-6.9l-0.3-0.7l-0.4-0.3h-1.7c0,0,0-2.1-0.2-3.2c-0.1-0.4-0.3-1.1-0.3-1.1s-0.2-0.6-0.5-0.8
		c-0.3-0.2-0.7-0.2-1-0.2c-0.4,0-0.6,0-0.9,0.2c-0.2,0.1-0.4,0.5-0.4,0.5l-0.1,0.5l-4.7-4.4L145.9,8.1z M155.5,226.2
		c5.2,0,9.4,4.2,9.4,9.4c0,0.1,0,0.1,0,0.2v40.8h-18.8v-40.8c0-0.1,0-0.1,0-0.2C146.1,230.4,150.3,226.2,155.5,226.2z M37.6,250.5
		c3.9,0,7.1,3.2,7.1,7.2c0,0.1,0,0.1,0,0.2v21.4H30.4v-21.4c0-0.1,0-0.1,0-0.2C30.4,253.7,33.7,250.5,37.6,250.5z M270.2,250.5
		c3.9,0,7.1,3.2,7.1,7.2c0,0.1,0,0.1,0,0.2v21.4h-14.2v-21.4c0-0.1,0-0.1,0-0.2C263.1,253.7,266.3,250.5,270.2,250.5z M155.5,296
		c5.2,0,9.4,4.2,9.4,9.4c0,0.1,0,0.1,0,0.2v60.6h-18.8v-60.6c0-0.1,0-0.1,0-0.2C146.1,300.2,150.3,296,155.5,296z M37.6,297.3
		c3.9,0,7.1,3.2,7.1,7.1c0,0.1,0,0.1,0,0.2V326H30.4v-21.4c0-0.1,0-0.1,0-0.2C30.4,300.5,33.7,297.3,37.6,297.3z M270.2,297.3
		c3.9,0,7.1,3.2,7.1,7.1c0,0.1,0,0.1,0,0.2V326h-14.2v-21.4c0-0.1,0-0.1,0-0.2C263.1,300.5,266.3,297.3,270.2,297.3z M94.6,300.4
		c4.7,0,8.5,4.1,8.5,9.2s-3.8,9.2-8.5,9.2s-8.5-4.1-8.5-9.2S89.9,300.4,94.6,300.4z M213.2,300.4c4.7,0,8.5,4.1,8.5,9.2
		s-3.8,9.2-8.5,9.2s-8.5-4.1-8.5-9.2S208.5,300.4,213.2,300.4z M37.6,338.5c3.9,0,7.1,3.2,7.1,7.1c0,0.1,0,0.1,0,0.2v22.6H30.4
		v-22.5c0-0.1,0-0.1,0-0.2C30.4,341.7,33.7,338.5,37.6,338.5z M94.6,338.5c3.9,0,7.1,3.2,7.1,7.1c0,0.1,0,0.1,0,0.2v22.6H87.4v-22.5
		l0,0c0-0.1,0-0.1,0-0.2C87.4,341.7,90.7,338.5,94.6,338.5z M213.2,338.5c3.9,0,7.2,3.2,7.2,7.1c0,0.1,0,0.1,0,0.2l0,0v22.6h-14.3
		v-22.5c0-0.1,0-0.1,0-0.2C206.1,341.7,209.2,338.5,213.2,338.5z M270.2,338.5c3.9,0,7.1,3.2,7.1,7.1c0,0.1,0,0.1,0,0.2v22.6h-14.2
		v-22.5c0-0.1,0-0.1,0-0.2C263.1,341.7,266.3,338.5,270.2,338.5z M37.6,383.3c3.9,0,7.1,3.2,7.1,7.1c0,0.1,0,0.1,0,0.2v23.8H30.4
		v-23.8c0-0.1,0-0.1,0-0.2C30.4,386.5,33.7,383.3,37.6,383.3z M270.2,383.3c3.9,0,7.1,3.2,7.1,7.1c0,0.1,0,0.1,0,0.2v23.8h-14.2
		v-23.8c0-0.1,0-0.1,0-0.2C263.1,386.5,266.3,383.3,270.2,383.3z M94.6,386.1c4.7,0,8.5,4.1,8.5,9.2s-3.8,9.2-8.5,9.2
		s-8.5-4.1-8.5-9.2S89.9,386.1,94.6,386.1z M213.2,386.1c4.7,0,8.5,4.1,8.5,9.2s-3.8,9.2-8.5,9.2s-8.5-4.1-8.5-9.2
		S208.5,386.1,213.2,386.1z M155.5,388.1c5.2,0,9.4,4.2,9.4,9.4c0,0.1,0,0.1,0,0.2v60.7h-18.8v-60.6c0-0.1,0-0.1,0-0.2
		C146.1,392.3,150.3,388.1,155.5,388.1z M93.8,419.7c6.1,0,11.1,5,11.1,11.1v0.1v27.5H82.7v-27.5v-0.1
		C82.7,424.6,87.6,419.7,93.8,419.7z M214,419.7c6.1,0,11.1,5,11.1,11.1v0.1v27.5h-22.2v-27.5v-0.1
		C202.9,424.6,207.9,419.7,214,419.7z M37.6,427.3c3.9,0,7.1,3.2,7.1,7.1c0,0.1,0,0.1,0,0.2v23.8H30.4v-23.8c0-0.1,0-0.1,0-0.2
		C30.4,430.5,33.7,427.3,37.6,427.3z M270.2,427.3c3.9,0,7.1,3.2,7.1,7.1c0,0.1,0,0.1,0,0.2v23.8h-14.2v-23.8c0-0.1,0-0.1,0-0.2
		C263.1,430.5,266.3,427.3,270.2,427.3z"/>
	<g id="g6449" transform="translate(3.633185,0)">
	</g>
	<g id="g6476" transform="translate(-0.64071355,0)">
	</g>
	<g id="g6491" transform="translate(0.49558,-22)">
	</g>
</g>
</svg>
